<svg xmlns="http://www.w3.org/2000/svg" xmlns:xlink="http://www.w3.org/1999/xlink" version="1.1" x="0px" y="0px" viewBox="0 0 128 160" style="enable-background:new 0 0 128 128;" xml:space="preserve">
  <g>
    <path d="M124,31h-17c-1.7,0-3,1.3-3,3s1.3,3,3,3h14v84H19.1C12.4,121,7,115.6,7,108.9c0-6.6,5.4-12,11.9-12.1L86.5,97   c2.5,0,4.5,2,4.5,4.5c0,2.5-2,4.5-4.5,4.5H19c-1.7,0-3,1.3-3,3s1.3,3,3,3h67.5c5.8,0,10.5-4.7,10.5-10.5c0-0.1,0-0.2,0-0.3   c0-0.1,0-0.1,0-0.2V11.5C97,5.7,92.3,1,86.5,1H19C9.1,1,1,9.1,1,19v90c0,0,0,0.1,0,0.1C1.1,119,9.2,127,19.1,127H124   c1.7,0,3-1.3,3-3V34C127,32.3,125.7,31,124,31z M7,19c0-6.6,5.4-12,12-12h67.5C89,7,91,9,91,11.5V92c-1.4-0.7-2.9-1-4.5-1   l-67.7-0.2c-4.5,0.1-8.7,1.8-11.8,4.7V19z"/>
  </g>
</svg>