<svg style="fill: green" xmlns="http://www.w3.org/2000/svg" xmlns:xlink="http://www.w3.org/1999/xlink" version="1.1" x="0px" y="0px" viewBox="0 0 73.959 111.25" enable-background="new 0 0 73.959 89" xml:space="preserve">
  <g>
    <g>
      <path d="M0,89v-2.273C0.002,66.3,16.553,49.748,36.978,49.746l0,0v2.277v2.273c-8.963,0.002-17.054,3.625-22.929,9.5l0,0    c-5.37,5.371-8.86,12.602-9.418,20.654l0,0h64.695c-1.169-16.848-15.205-30.154-32.348-30.154l0,0v-2.273v-2.277    C57.401,49.748,73.954,66.3,73.957,86.724l0,0L73.959,89H0L0,89z"/>
    </g>
    <g>
      <path d="M12.338,24.641C12.34,11.029,23.371,0.002,36.979,0l0,0c13.608,0.002,24.634,11.029,24.639,24.641l0,0    c-0.005,13.609-11.03,24.634-24.639,24.636l0,0V47v-2.278c11.093,0.002,20.085-8.989,20.087-20.082l0,0    C57.064,13.545,48.072,4.552,36.979,4.552l0,0c-11.094,0.021-20.067,8.993-20.087,20.089l0,0    c0.021,11.093,8.993,20.063,20.087,20.082l0,0V47v2.276C23.371,49.275,12.34,38.25,12.338,24.641L12.338,24.641z"/>
    </g>
  </g>
</svg>