<svg xmlns="http://www.w3.org/2000/svg" xmlns:xlink="http://www.w3.org/1999/xlink" version="1.1" x="0px" y="0px" viewBox="0 0 100 125" enable-background="new 0 0 100 100" xml:space="preserve">
  <path fill="#000000" d="M79.146,25.511c-0.001,0-0.001,0-0.002,0l-58.289,0.052c-2.264,0-4.105,2.117-4.105,4.719V69.77  c0,2.602,1.841,4.719,4.105,4.719h58.291c2.264,0,4.104-2.117,4.104-4.719V30.232C83.25,27.629,81.409,25.511,79.146,25.511z   M76.675,29.014L50,48.431l-26.61-19.37L76.675,29.014z M79.146,70.989H20.855c-0.185,0-0.605-0.46-0.605-1.219V31.105l28.72,20.906  c0.307,0.224,0.668,0.335,1.03,0.335s0.723-0.111,1.03-0.335L79.75,31.105V69.77C79.75,70.529,79.33,70.989,79.146,70.989z"/>
</svg>